<?xml version="1.0" standalone="no"?>
<!DOCTYPE svg PUBLIC "-//W3C//DTD SVG 20010904//EN"
 "http://www.w3.org/TR/2001/REC-SVG-20010904/DTD/svg10.dtd">
<svg version="1.0" xmlns="http://www.w3.org/2000/svg"
 width="639.000000pt" height="639.000000pt" viewBox="0 0 639.000000 639.000000"
 preserveAspectRatio="xMidYMid meet">
<metadata>
Created by potrace 1.14, written by Peter Selinger 2001-2017
</metadata>
<g transform="translate(0.000000,639.000000) scale(0.100000,-0.100000)"
fill="#000000" stroke="none">
<path d="M3198 5955 c-2 -2 -16 -6 -33 -8 -16 -3 -41 -9 -55 -12 -14 -3 -29
-7 -35 -8 -22 -5 -110 -51 -117 -61 -4 -6 -8 -7 -8 -3 0 9 3 12 -129 -102 -13
-12 -20 -21 -15 -21 5 0 -4 -11 -19 -25 -15 -14 -27 -29 -27 -33 0 -10 -133
-157 -285 -316 -27 -29 -93 -98 -145 -155 -52 -57 -117 -127 -145 -156 -27
-29 -99 -106 -160 -170 -60 -65 -121 -130 -135 -145 -14 -15 -72 -78 -130
-140 -58 -62 -123 -132 -145 -155 -22 -23 -78 -83 -125 -134 -47 -51 -107
-116 -135 -145 -27 -29 -102 -109 -165 -176 -63 -68 -131 -141 -150 -161 -19
-20 -82 -88 -140 -150 -58 -62 -116 -124 -130 -139 -14 -15 -79 -84 -145 -154
-74 -78 -131 -149 -148 -183 -79 -154 0 -318 168 -349 49 -9 198 -9 213 0 5 3
12 1 14 -5 2 -7 12 -7 31 0 15 6 27 7 27 3 0 -4 39 -5 86 -2 64 4 89 2 97 -8
13 -17 17 -52 5 -52 -5 0 -6 -6 -1 -12 4 -7 8 -307 8 -666 l0 -653 -40 -10
c-56 -14 -95 -32 -210 -93 -11 -6 -22 -13 -25 -16 -3 -3 -18 -14 -33 -23 -74
-48 -162 -131 -183 -175 -10 -20 -17 -57 -17 -82 0 -49 20 -120 33 -120 4 0
51 43 103 95 53 52 100 95 105 95 6 0 13 7 16 16 4 9 9 14 12 11 3 -3 14 2 24
11 38 35 137 89 152 85 4 -2 8 2 8 8 0 6 6 9 14 6 7 -3 17 -2 22 3 29 27 233
46 304 28 60 -15 130 -42 130 -50 0 -5 5 -6 11 -3 5 4 18 1 27 -7 9 -7 78 -43
152 -78 74 -36 138 -69 141 -73 3 -5 8 -8 10 -7 2 2 27 -8 54 -20 97 -43 113
-50 122 -50 4 0 19 -6 33 -13 14 -7 59 -24 100 -37 41 -14 77 -27 80 -30 3 -3
14 -6 25 -8 11 -2 27 -6 35 -9 8 -3 20 -7 25 -9 6 -1 57 -16 114 -33 58 -16
108 -28 113 -25 4 3 8 1 8 -3 0 -5 10 -9 23 -10 12 -1 33 -4 47 -7 41 -10 73
-16 109 -22 18 -3 43 -8 55 -10 27 -6 101 -13 194 -18 41 -3 75 -6 77 -8 9 -9
331 4 405 16 14 3 45 7 70 10 59 8 99 15 130 22 14 4 34 8 45 9 11 2 49 11 85
20 36 10 72 19 80 20 8 2 15 4 15 5 0 1 8 3 18 6 52 12 130 35 177 51 25 8 52
16 60 18 8 2 62 19 120 40 58 20 110 38 115 39 12 4 37 14 90 36 51 22 109 44
115 46 7 1 73 30 150 66 36 17 70 31 75 33 6 1 26 8 45 16 19 7 38 12 43 11 4
-1 7 2 7 7 0 5 15 12 33 16 17 4 39 9 47 12 8 2 25 5 37 6 13 1 23 5 23 8 0
13 188 1 245 -16 70 -20 205 -83 205 -96 0 -5 3 -8 8 -7 22 7 190 -139 232
-203 8 -12 23 -29 33 -38 9 -8 17 -21 17 -28 0 -23 18 -14 45 20 33 45 37 125
7 182 -20 40 -97 118 -162 164 -84 60 -150 101 -165 101 -8 0 -15 3 -15 8 0 8
-117 55 -137 55 -7 0 -13 4 -13 9 0 4 -3 7 -7 7 -39 -6 -38 -32 -38 701 0 609
2 702 15 710 9 6 16 6 18 0 2 -5 13 -6 25 -2 28 9 59 8 75 -1 6 -5 12 -5 12 0
0 4 69 7 152 7 87 -1 158 3 166 9 6 5 12 7 12 3 0 -10 93 40 117 63 43 41 66
100 65 171 0 104 -28 151 -182 311 -19 20 -84 89 -145 155 -60 65 -130 139
-155 165 -25 26 -83 89 -130 140 -47 50 -101 108 -120 129 -19 20 -82 88 -140
150 -58 62 -139 149 -181 194 -42 45 -98 103 -123 130 -25 27 -46 53 -46 58 0
5 -4 6 -10 3 -5 -3 -10 -3 -10 2 0 4 -29 40 -65 78 -36 39 -102 110 -148 159
-45 49 -98 105 -117 126 -19 20 -82 87 -140 150 -58 62 -125 134 -150 160 -25
26 -88 94 -140 150 -52 56 -117 125 -143 154 -27 28 -81 87 -120 131 -95 105
-187 198 -187 188 0 -4 -4 -3 -8 2 -23 33 -183 112 -203 100 -4 -3 -10 -1 -13
3 -3 5 -18 8 -33 8 -15 -1 -40 2 -55 5 -14 4 -28 6 -30 4z m154 -208 c29 -14
64 -35 78 -47 14 -12 34 -29 45 -39 11 -9 31 -32 45 -50 14 -18 30 -38 36 -45
13 -14 69 -130 78 -162 11 -38 18 -97 18 -155 -1 -104 -66 -199 -188 -273 -99
-60 -106 -107 -26 -184 27 -26 100 -94 161 -151 243 -227 460 -440 796 -783
275 -280 293 -300 360 -388 46 -60 59 -80 84 -127 55 -104 81 -243 76 -393 -2
-63 -6 -126 -9 -140 -4 -14 -9 -41 -12 -60 -3 -19 -16 -67 -29 -107 -57 -173
-117 -269 -265 -421 -95 -97 -141 -137 -258 -227 -7 -5 -21 -17 -30 -25 -10
-8 -67 -47 -127 -87 -61 -40 -115 -76 -120 -80 -12 -10 -91 -53 -122 -68 -13
-5 -23 -13 -23 -17 0 -5 -9 -8 -19 -8 -11 0 -21 -3 -23 -7 -4 -10 -131 -73
-146 -73 -7 0 -12 -4 -12 -10 0 -5 -6 -10 -12 -10 -7 0 -56 -19 -108 -41 -52
-23 -102 -43 -110 -44 -8 -2 -16 -4 -17 -5 -2 -2 -6 -3 -10 -5 -5 -1 -19 -6
-33 -12 -23 -10 -85 -30 -120 -40 -8 -2 -15 -3 -16 -1 0 2 -8 -3 -17 -11 -10
-7 -17 -10 -17 -6 0 4 -6 3 -12 -2 -13 -9 -42 -9 -103 0 -30 4 -57 10 -130 28
-22 5 -49 11 -60 14 -31 5 -226 75 -257 91 -15 8 -30 14 -33 14 -3 0 -18 6
-33 14 -47 24 -119 8 -160 -36 -28 -30 -37 -68 -16 -68 8 0 14 -4 14 -9 0 -8
21 -17 59 -26 8 -2 17 -9 21 -16 4 -6 12 -9 18 -5 5 3 15 -1 22 -9 7 -8 19
-15 27 -15 8 0 36 -10 62 -23 25 -13 52 -22 59 -19 6 2 12 -2 12 -8 0 -7 6
-10 14 -7 8 3 20 0 26 -8 6 -8 18 -11 26 -8 8 3 14 1 14 -4 0 -5 8 -9 18 -10
9 -1 35 -6 57 -13 40 -11 132 -32 196 -45 45 -9 158 -11 187 -2 95 26 318 108
422 154 97 43 126 56 140 64 8 5 26 14 40 19 14 6 32 14 40 20 8 5 40 22 70
38 113 60 125 67 137 82 7 8 13 12 13 8 0 -4 43 21 96 57 53 36 101 65 105 65
5 0 9 3 9 8 0 4 21 21 45 37 25 17 45 33 45 38 0 4 6 7 13 7 7 0 20 8 29 18 9
9 38 35 65 57 91 74 278 271 325 341 201 301 264 694 161 1014 -26 82 -103
228 -125 238 -5 2 -8 8 -8 14 0 5 -6 15 -12 23 -7 7 -31 35 -53 61 -124 149
-919 944 -1187 1188 -21 18 -38 39 -38 47 0 7 2 10 5 7 12 -11 135 127 135
152 0 5 4 10 8 10 18 0 58 143 61 219 1 15 52 -36 251 -249 58 -62 125 -134
150 -161 25 -26 83 -89 130 -139 47 -50 105 -113 130 -139 25 -27 88 -94 140
-151 52 -56 119 -127 148 -156 28 -29 52 -55 52 -57 0 -2 33 -38 73 -79 39
-42 108 -115 152 -163 44 -47 107 -115 140 -150 33 -35 98 -105 145 -155 47
-51 117 -126 155 -166 39 -41 102 -108 140 -150 39 -42 88 -95 110 -118 72
-74 88 -111 69 -161 -13 -32 -57 -38 -279 -40 -215 -2 -285 -8 -285 -25 0 -5
-9 -11 -20 -15 -10 -3 -29 -23 -42 -43 l-23 -37 -1 -718 c0 -394 -3 -719 -6
-722 -3 -3 -25 -8 -49 -10 -69 -7 -144 -25 -222 -51 -76 -26 -84 -29 -162 -65
-27 -13 -59 -25 -69 -26 -11 -2 -26 -9 -34 -15 -13 -11 -71 -35 -97 -41 -6 -1
-21 -10 -34 -19 -13 -10 -28 -15 -33 -12 -5 3 -14 2 -21 -3 -7 -5 -34 -17 -62
-27 -27 -10 -59 -22 -70 -26 -43 -19 -165 -58 -165 -53 0 3 -7 0 -15 -7 -8 -7
-15 -9 -15 -5 0 4 -7 2 -15 -5 -8 -7 -15 -9 -15 -6 0 4 -6 4 -12 -1 -7 -4 -20
-9 -28 -11 -13 -2 -40 -9 -47 -11 -2 -1 -5 0 -6 2 -2 1 -11 -4 -20 -12 -10 -7
-17 -11 -17 -7 0 3 -11 1 -25 -4 -14 -5 -36 -12 -48 -14 -12 -3 -80 -18 -152
-35 -140 -32 -216 -44 -282 -45 -24 -1 -43 -4 -43 -7 0 -10 -372 -7 -398 2
-17 7 -21 6 -16 -3 4 -6 3 -8 -3 -5 -11 7 -46 14 -118 22 -50 6 -77 10 -125
20 -14 3 -36 7 -50 10 -14 3 -36 7 -50 11 -14 3 -41 9 -60 14 -19 4 -50 13
-67 18 -18 6 -33 8 -33 4 0 -4 -4 -2 -8 3 -4 6 -32 17 -62 24 -30 8 -60 17
-65 22 -6 4 -22 10 -35 12 -14 2 -34 8 -45 12 -11 4 -56 21 -100 38 -44 16
-86 34 -92 40 -7 5 -13 7 -13 3 0 -4 -20 5 -45 18 -25 14 -45 23 -45 20 0 -3
-12 3 -27 14 -16 11 -31 20 -36 21 -4 0 -66 30 -137 66 -115 58 -214 102 -245
110 -5 1 -17 5 -25 8 -31 11 -67 18 -130 24 -36 3 -67 7 -69 9 -2 2 -4 319 -4
703 0 754 1 737 -52 784 -53 48 -66 50 -325 49 -278 -1 -300 4 -300 61 0 40
13 59 114 166 124 130 145 152 226 240 41 45 104 113 140 151 36 37 103 110
150 160 47 50 103 111 125 134 22 23 90 96 150 161 61 65 134 143 163 173 28
30 52 56 52 57 0 2 21 26 48 52 26 27 99 105 162 173 63 68 126 135 140 150
14 15 75 80 135 145 234 251 262 280 326 348 l67 69 7 -53 c16 -121 59 -205
151 -294 l63 -60 -107 -115 c-146 -156 -539 -548 -697 -695 -348 -322 -489
-480 -559 -625 -17 -36 -33 -67 -36 -70 -3 -3 -6 -14 -6 -25 -2 -21 -11 -70
-14 -70 -1 0 -3 -29 -4 -65 -4 -118 19 -219 80 -345 33 -70 74 -146 84 -155 3
-3 22 -28 42 -57 46 -64 64 -87 106 -129 18 -19 30 -34 28 -34 -3 0 5 -10 17
-23 12 -13 23 -22 25 -22 1 1 24 -19 50 -44 78 -75 214 -181 232 -181 6 0 8
-5 5 -10 -3 -5 -1 -10 6 -10 6 0 42 -20 80 -45 38 -25 73 -45 79 -45 5 0 10
-5 10 -11 0 -5 4 -8 9 -5 5 4 11 3 13 -1 5 -12 323 -167 330 -162 2 2 14 -4
28 -11 14 -8 30 -15 35 -17 13 -3 83 -28 120 -44 17 -7 36 -13 43 -15 8 -1 21
-6 30 -10 9 -4 26 -9 37 -11 11 -1 29 -7 40 -12 23 -11 80 -29 116 -37 33 -7
41 -9 64 -17 65 -21 130 -23 160 -6 6 4 23 9 39 13 32 8 192 69 246 94 19 9
37 16 40 17 26 3 317 162 353 193 9 8 17 11 17 7 0 -4 9 2 20 15 11 13 20 20
20 16 0 -4 7 -1 15 7 8 8 30 25 50 37 19 12 35 26 35 31 0 5 5 9 10 9 15 0 69
48 190 170 127 127 143 147 197 230 77 121 111 234 111 369 0 244 -105 462
-293 608 -50 38 -168 98 -215 109 -19 4 -42 9 -50 11 -43 11 -82 15 -145 16
-61 0 -175 -8 -182 -14 -2 -1 -7 -3 -13 -4 -5 -1 -11 -4 -12 -5 -2 -1 -12 -4
-23 -5 -11 -2 -33 -8 -50 -15 -16 -7 -36 -12 -42 -11 -7 1 -13 -3 -13 -9 0 -5
-9 -10 -20 -10 -11 0 -20 -4 -20 -10 0 -5 -9 -10 -20 -10 -11 0 -20 -5 -20
-10 0 -6 -3 -9 -7 -8 -12 3 -83 -43 -83 -54 0 -5 -5 -6 -10 -3 -6 3 -13 -1
-16 -9 -3 -9 -11 -16 -16 -16 -6 0 -39 -29 -74 -65 l-63 -66 -36 57 c-79 123
-228 231 -360 260 -85 19 -187 24 -255 11 -79 -14 -180 -41 -180 -47 0 -4 -6
-7 -12 -7 -21 0 -114 -48 -162 -83 -31 -22 -159 -150 -150 -150 4 0 0 -8 -8
-17 -9 -10 -27 -40 -40 -68 -22 -44 -29 -63 -45 -125 -33 -126 -15 -302 44
-436 9 -22 17 -41 18 -44 2 -13 58 -100 64 -100 11 0 35 32 55 73 24 52 30
142 10 162 -9 8 -13 15 -11 15 2 0 -2 26 -9 58 -40 168 3 329 118 444 34 33
113 88 127 88 6 0 11 4 11 8 0 5 6 9 13 9 6 1 35 8 62 18 96 33 109 34 209 30
123 -5 126 -6 126 -18 0 -6 3 -8 6 -4 10 10 96 -38 139 -77 22 -19 43 -36 48
-36 4 0 7 -7 7 -15 0 -8 4 -15 8 -15 5 0 15 -12 23 -27 8 -16 16 -30 19 -33 9
-8 38 -80 56 -137 20 -65 34 -77 90 -77 48 -1 58 8 95 82 11 23 25 42 30 42 5
0 9 6 9 13 0 6 14 27 30 46 17 18 30 38 30 44 0 6 2 8 5 5 3 -3 20 9 38 26 18
17 43 39 55 49 30 23 152 88 152 80 0 -3 7 0 15 7 8 7 15 9 15 6 0 -4 8 -2 18
3 19 10 52 18 106 26 16 2 31 6 33 9 3 3 16 1 29 -4 13 -5 26 -5 29 -1 4 7 40
8 40 1 0 -1 14 -3 30 -4 46 -3 98 -17 114 -30 8 -6 17 -10 20 -9 31 8 221
-140 221 -173 0 -8 4 -14 8 -14 12 0 58 -96 82 -170 36 -109 30 -288 -13 -364
-6 -12 -12 -23 -12 -26 -1 -12 -40 -70 -47 -70 -4 0 -8 -6 -8 -12 -1 -24 -176
-211 -286 -306 -80 -69 -299 -207 -439 -277 -80 -41 -145 -72 -145 -70 0 2
-25 -7 -55 -20 -30 -14 -55 -22 -55 -19 0 4 -6 2 -12 -3 -12 -9 -68 -30 -108
-41 -29 -7 -67 -3 -129 17 -19 6 -38 8 -42 5 -5 -3 -9 0 -9 5 0 6 -11 11 -23
11 -13 0 -27 3 -31 8 -4 4 -11 7 -14 8 -4 0 -34 8 -67 19 -33 10 -63 19 -67
21 -5 1 -11 3 -15 4 -5 1 -11 2 -15 1 -5 0 -8 4 -8 9 0 5 -3 9 -7 9 -5 -1 -11
0 -15 1 -5 1 -11 3 -15 5 -11 2 -40 14 -92 36 -24 11 -50 19 -57 19 -8 0 -14
5 -14 10 0 6 -6 10 -14 10 -30 0 -356 172 -364 192 -2 4 -9 8 -16 8 -7 0 -21
8 -32 18 -10 10 -26 21 -34 24 -30 12 -197 154 -272 231 -155 161 -283 376
-304 512 -15 96 -3 168 40 260 56 120 161 239 436 495 272 254 526 503 717
707 265 281 276 295 275 335 -1 32 -47 92 -64 82 -4 -3 -8 0 -8 5 0 6 -7 11
-15 11 -8 0 -15 5 -15 10 0 6 -6 10 -13 10 -17 0 -108 90 -101 101 3 5 1 9 -4
9 -18 0 -44 85 -47 150 -3 97 50 259 105 317 11 12 20 25 20 28 0 14 134 131
153 134 4 0 21 8 37 16 17 9 35 13 40 10 5 -3 11 -1 14 4 12 18 133 4 188 -22z"/>
<path d="M3310 4470 c0 -5 -3 -9 -7 -8 -17 4 -59 -16 -81 -40 -33 -35 -44 -68
-46 -136 l-2 -58 -59 -2 c-97 -3 -158 -50 -170 -130 -7 -41 -19 -38 125 -38
52 0 98 -5 101 -10 3 -4 4 -50 3 -101 -3 -117 0 -129 31 -117 12 5 26 6 29 3
3 -4 6 -1 6 5 0 7 6 12 14 12 33 0 102 114 95 157 -7 39 2 49 44 51 53 2 66 5
97 21 41 22 79 69 86 107 8 45 -3 53 -61 44 -25 -4 -45 -4 -45 -1 0 3 -13 6
-30 6 -16 0 -30 -2 -30 -5 0 -4 -15 -4 -33 -2 l-32 4 1 114 c0 102 -2 116 -18
125 -12 6 -18 6 -18 -1z"/>
</g>
</svg>
